<svg width="25" height="25" viewBox="0 0 25 25" fill="none" xmlns="http://www.w3.org/2000/svg">
<path fill-rule="evenodd" clip-rule="evenodd" d="M16.419 9.23047H7.67478C7.19208 9.23047 6.80078 9.62177 6.80078 10.1045V17.0996C6.80078 18.5483 7.97516 19.7227 9.42383 19.7227H14.6699C15.3656 19.7227 16.0328 19.4463 16.5247 18.9544C17.0166 18.4625 17.293 17.7953 17.293 17.0996V10.1045C17.293 9.62177 16.9017 9.23047 16.419 9.23047Z" stroke="#775FD5" stroke-width="1.5" stroke-linecap="round" stroke-linejoin="round"/>
<path d="M11.0439 12.7293C11.0439 12.3151 10.7081 11.9793 10.2939 11.9793C9.8797 11.9793 9.54391 12.3151 9.54391 12.7293H11.0439ZM9.54391 16.2264C9.54391 16.6406 9.8797 16.9764 10.2939 16.9764C10.7081 16.9764 11.0439 16.6406 11.0439 16.2264H9.54391ZM14.5466 12.7293C14.5466 12.3151 14.2109 11.9793 13.7966 11.9793C13.3824 11.9793 13.0466 12.3151 13.0466 12.7293H14.5466ZM13.0466 16.2264C13.0466 16.6406 13.3824 16.9764 13.7966 16.9764C14.2109 16.9764 14.5466 16.6406 14.5466 16.2264H13.0466ZM13.8933 5.78531C14.3075 5.78531 14.6433 5.44952 14.6433 5.03531C14.6433 4.62109 14.3075 4.28531 13.8933 4.28531V5.78531ZM10.3963 4.28531C9.98206 4.28531 9.64627 4.62109 9.64627 5.03531C9.64627 5.44952 9.98206 5.78531 10.3963 5.78531V4.28531ZM17.293 7.88384C17.7072 7.88384 18.043 7.54806 18.043 7.13384C18.043 6.71963 17.7072 6.38384 17.293 6.38384V7.88384ZM6.80078 6.38384C6.38657 6.38384 6.05078 6.71963 6.05078 7.13384C6.05078 7.54806 6.38657 7.88384 6.80078 7.88384V6.38384ZM9.54391 12.7293V16.2264H11.0439V12.7293H9.54391ZM13.0466 12.7293V16.2264H14.5466V12.7293H13.0466ZM13.8933 4.28531H10.3963V5.78531H13.8933V4.28531ZM17.293 6.38384H6.80078V7.88384H17.293V6.38384Z" fill="#775FD5"/>
</svg>
